<?xml version="1.0" standalone="no"?>
<!DOCTYPE svg PUBLIC "-//W3C//DTD SVG 20010904//EN"
 "http://www.w3.org/TR/2001/REC-SVG-20010904/DTD/svg10.dtd">
<svg version="1.0" xmlns="http://www.w3.org/2000/svg"
 width="199.000000pt" height="46.000000pt" viewBox="0 0 199.000000 46.000000"
 preserveAspectRatio="xMidYMid meet">

<g transform="translate(0.000000,46.000000) scale(0.100000,-0.100000)"
fill="#000000" stroke="none">
<path d="M160 243 c0 -5 12 -20 28 -34 l27 -24 -25 30 c-14 17 -26 32 -27 34
-2 2 -3 0 -3 -6z"/>
<path d="M595 200 c21 -22 41 -40 44 -40 3 0 -13 18 -34 40 -21 22 -41 40 -44
40 -3 0 13 -18 34 -40z"/>
<path d="M1470 237 c0 -1 21 -20 48 -42 l47 -38 -40 41 c-33 36 -55 51 -55 39z"/>
<path d="M865 210 c10 -11 20 -20 23 -20 3 0 -3 9 -13 20 -10 11 -20 20 -23
20 -3 0 3 -9 13 -20z"/>
<path d="M272 200 c0 -14 2 -19 5 -12 2 6 2 18 0 25 -3 6 -5 1 -5 -13z"/>
<path d="M1302 200 c0 -14 2 -19 5 -12 2 6 2 18 0 25 -3 6 -5 1 -5 -13z"/>
<path d="M1690 181 c0 -6 4 -13 10 -16 6 -3 7 1 4 9 -7 18 -14 21 -14 7z"/>
</g>
</svg>
