<?xml version="1.0" standalone="no"?>
<!DOCTYPE svg PUBLIC "-//W3C//DTD SVG 20010904//EN"
 "http://www.w3.org/TR/2001/REC-SVG-20010904/DTD/svg10.dtd">
<svg version="1.0" xmlns="http://www.w3.org/2000/svg"
 width="900.000000pt" height="512.000000pt" viewBox="0 0 900.000000 512.000000"
 preserveAspectRatio="xMidYMid meet">

<g transform="translate(0.000000,512.000000) scale(0.100000,-0.100000)"
fill="#000000" stroke="none">
<path d="M2625 4219 c-96 -7 -125 -14 -178 -39 -23 -11 -46 -20 -52 -20 -16 0
-105 -79 -105 -92 0 -6 -11 -25 -23 -42 -38 -50 -48 -73 -55 -134 -14 -121 -8
-184 26 -255 32 -69 118 -167 147 -167 8 0 15 -4 15 -9 0 -18 103 -52 178 -58
100 -8 3867 -7 3907 1 132 26 165 38 209 79 103 95 105 98 132 180 14 45 28
111 31 147 5 55 1 75 -22 130 -15 36 -37 79 -49 95 -11 17 -21 33 -21 37 0 10
-117 98 -129 98 -5 0 -17 7 -27 16 -10 9 -35 20 -56 26 -42 11 -3787 18 -3928
7z m3927 -86 c60 -27 127 -94 158 -158 35 -72 35 -198 0 -270 -31 -64 -92
-124 -155 -156 l-50 -24 -2005 0 -2005 0 -50 24 c-261 129 -237 510 38 597 34
10 415 12 2032 11 l1990 -2 47 -22z"/>
<path d="M2503 2920 c-39 -14 -75 -28 -79 -32 -4 -5 -13 -8 -20 -8 -22 0 -96
-73 -134 -133 -21 -31 -43 -81 -50 -110 -6 -28 -14 -59 -17 -67 -13 -33 -1
-109 29 -188 32 -83 50 -105 152 -191 39 -32 107 -61 154 -65 22 -2 45 -7 52
-11 8 -5 11 -4 7 2 -3 5 0 10 8 10 8 0 12 -3 10 -6 -4 -8 3856 -6 3875 2 8 4
26 8 40 11 99 16 172 57 231 128 51 62 78 119 85 180 18 178 10 217 -68 328
-44 61 -64 80 -108 102 -30 15 -60 31 -66 37 -39 34 -68 34 -2064 35 l-1965 1
-72 -25z m4049 -67 c60 -27 127 -94 158 -158 35 -72 35 -198 0 -270 -31 -64
-92 -124 -155 -156 l-50 -24 -2005 0 -2005 0 -50 24 c-261 129 -237 510 38
597 34 10 415 12 2032 11 l1990 -2 47 -22z"/>
<path d="M2697 1664 c-1 -1 -45 -4 -99 -7 -94 -5 -168 -27 -202 -59 -8 -7 -37
-31 -65 -53 -29 -23 -60 -57 -70 -80 -70 -149 -74 -171 -51 -279 16 -79 32
-118 67 -166 67 -94 117 -127 253 -169 51 -15 198 -17 1975 -14 1056 1 1927 2
1935 3 8 0 30 0 49 0 31 -1 100 18 111 30 3 3 32 19 65 37 49 25 70 45 112
104 81 113 90 160 67 334 -8 62 -41 129 -91 185 -40 44 -131 102 -167 106 -23
2 -76 12 -116 21 -21 5 -3768 11 -3773 7z m3855 -91 c60 -27 127 -94 158 -158
35 -72 35 -198 0 -270 -31 -64 -92 -124 -155 -156 l-50 -24 -2005 0 -2005 0
-50 24 c-261 129 -237 510 38 597 34 10 415 12 2032 11 l1990 -2 47 -22z"/>
</g>
</svg>
